<svg xmlns="http://www.w3.org/2000/svg" viewBox="0 0 521.52 208.34"><defs><style>.cls-1{fill:#e4a330;}.cls-2{fill:#e1972f;}.cls-3{fill:#fff;}.cls-4{fill:#ebba63;}</style></defs><title>Asset 1</title><g id="Layer_2" data-name="Layer 2"><g id="Object"><path class="cls-1" d="M0,208.34H0C0,110.23,112.71,0,256.13,0h0C399.55,0,521.52,110.23,521.52,208.34H0Z"/><path class="cls-2" d="M414.81,50.52c-31.14,82.42-102.72,130.6-164,157.82H521.21C520,145.22,468.12,79.55,414.81,50.52Z"/><path class="cls-3" d="M163.29,72.07c-5.22,6.21-11.72,9.32-14.53,7s-.87-9.3,4.35-15.51,11.72-9.32,14.53-7S168.5,65.87,163.29,72.07Z"/><path class="cls-3" d="M351.29,73.56c-7,4-14.2,4.75-16,1.57s2.36-9,9.38-13.09,14.2-4.76,16-1.58S358.31,69.5,351.29,73.56Z"/><ellipse class="cls-3" cx="252.47" cy="70.72" rx="14.67" ry="6.65" transform="translate(130.71 302.93) rotate(-77.98)"/><path class="cls-3" d="M215.27,42.39c5.36,6.08,7.46,13,4.7,15.41s-9.33-.54-14.68-6.63-7.46-13-4.7-15.41S209.92,36.3,215.27,42.39Z"/><path class="cls-3" d="M306.65,44.24c7.53,3,12.54,8.18,11.19,11.59s-8.56,3.76-16.1.76S289.2,48.41,290.56,45,299.12,41.25,306.65,44.24Z"/><path class="cls-4" d="M14.81,193.19S46.4,53.76,202.85,22.78C202.85,22.78,85.44,88.51,14.81,193.19Z"/></g></g></svg>